<svg width="72" height="72" viewBox="0 0 72 72" fill="none" xmlns="http://www.w3.org/2000/svg">
<path d="M12.6483 45.0035L10.0336 54.2042H12.0911L12.5631 52.4898H15.1137L15.5729 54.2042H17.8103L15.1958 45.0035H12.6483ZM13.0799 50.6391L13.8566 47.7775L14.6246 50.6391H13.0799Z" fill="#00979C"/>
<path d="M22.7271 50.0067C22.6968 49.9717 22.6653 49.938 22.6326 49.9057C22.697 49.8795 22.7597 49.8516 22.8211 49.8211C23.0635 49.7026 23.2834 49.5366 23.4696 49.3315C23.6563 49.1225 23.8019 48.8749 23.8975 48.6037C23.9971 48.3273 24.0477 48.0097 24.0477 47.6603C24.0477 47.1786 23.967 46.7619 23.8084 46.4216C23.6507 46.0806 23.413 45.7901 23.1189 45.5789C22.8307 45.3706 22.48 45.22 22.0766 45.1317C21.6889 45.0469 21.2523 45.0035 20.7791 45.0035H18.11V54.2042H20.157V50.6092H20.2177C20.4416 50.6092 20.6283 50.6623 20.7883 50.7718C20.9471 50.8803 21.0688 51.0403 21.161 51.2619L22.3982 54.2042H24.7798L23.2767 50.9221C23.0946 50.5236 22.9147 50.2244 22.7271 50.0067ZM21.8368 48.2416C21.7773 48.3636 21.6911 48.4681 21.5857 48.5461C21.47 48.6337 21.3264 48.701 21.1582 48.746C20.9807 48.7939 20.7781 48.818 20.5558 48.818H20.157V46.8811H20.6068C21.0754 46.8811 21.4236 46.9604 21.6417 47.1169C21.8318 47.2533 21.9242 47.4831 21.9242 47.8198C21.9242 47.9826 21.8955 48.1207 21.8368 48.2416Z" fill="#00979C"/>
<path d="M30.7771 46.0962C30.4325 45.7227 29.9978 45.4431 29.4852 45.2655C28.9856 45.0918 28.3975 45.0035 27.7375 45.0035H25.0303V54.2042H27.3868C28.1473 54.2042 28.8124 54.0926 29.3637 53.8724C29.9235 53.6493 30.3911 53.3255 30.753 52.9101C31.1144 52.4956 31.3838 51.9893 31.5531 51.4053C31.7192 50.8337 31.8033 50.1907 31.8033 49.4942C31.8033 48.7351 31.719 48.0691 31.5525 47.5149C31.3824 46.9471 31.1216 46.4699 30.7771 46.0962ZM29.1035 51.6877C28.7481 52.1134 28.2325 52.3202 27.5273 52.3202H27.077V46.8876H27.6355C28.0301 46.8876 28.3614 46.9477 28.6198 47.0665C28.8704 47.1814 29.0643 47.3437 29.2125 47.5623C29.3639 47.7865 29.4736 48.0679 29.5386 48.3979C29.6069 48.7471 29.6418 49.1517 29.6418 49.6006C29.6418 50.5579 29.4607 51.2602 29.1035 51.6877Z" fill="#00979C"/>
<path d="M36.7341 50.8566C36.7341 51.1738 36.707 51.4441 36.6531 51.6602C36.6029 51.8618 36.5289 52.0265 36.4329 52.1496C36.3421 52.267 36.2232 52.3553 36.0891 52.4049C35.9375 52.4633 35.7436 52.4928 35.5125 52.4928C35.2681 52.4928 35.0665 52.4591 34.9133 52.3923C34.7726 52.3328 34.6481 52.2361 34.5513 52.1109C34.4545 51.9853 34.3852 51.8277 34.3451 51.6417C34.3005 51.4364 34.278 51.1948 34.278 50.9229V45.0035H32.2312V51.0226C32.2312 51.5199 32.2884 51.9765 32.4007 52.3794C32.5177 52.7979 32.7105 53.1598 32.9741 53.4542C33.2377 53.7484 33.5827 53.9761 33.9997 54.13C34.4049 54.2806 34.8946 54.3568 35.455 54.3568C35.956 54.3568 36.4158 54.2806 36.821 54.13C37.2354 53.9769 37.5926 53.7448 37.8828 53.4398C38.1733 53.1344 38.3986 52.75 38.5526 52.2973C38.704 51.8528 38.7809 51.3323 38.7809 50.7501V45.0035H36.7341V50.8566Z" fill="#00979C"/>
<path d="M39.8276 46.8545H41.6644V52.3402H39.8276V54.2042H45.5737V52.3402H43.7369V46.8545H45.5737V45.0035H39.8276V46.8545Z" fill="#00979C"/>
<path d="M51.2697 50.2461L48.9815 45.0035H46.6648V54.2042H48.5711V48.862L50.8715 54.2042H53.1765V45.0035H51.2697V50.2461Z" fill="#00979C"/>
<path d="M59.8029 46.0922C59.2052 45.2729 58.3093 44.8575 57.1405 44.8575C56.6405 44.8575 56.1635 44.9531 55.7229 45.1414C55.276 45.3324 54.8812 45.6296 54.5491 46.0256C54.22 46.4182 53.9586 46.923 53.7727 47.5259C53.5888 48.1209 53.4956 48.8346 53.4956 49.6472C53.4956 51.1483 53.7918 52.3161 54.376 53.1189C54.9736 53.9405 55.8695 54.3569 57.0383 54.3569C57.5386 54.3569 58.0159 54.2614 58.4566 54.073C58.9036 53.8819 59.2983 53.5845 59.63 53.1891C59.9587 52.7968 60.22 52.2921 60.4065 51.6888C60.59 51.094 60.6832 50.3803 60.6832 49.5673C60.6832 48.0619 60.387 46.8925 59.8029 46.0922ZM58.4558 50.8728C58.3972 51.2123 58.3057 51.4986 58.184 51.7238C58.0685 51.9384 57.9254 52.0956 57.7471 52.204C57.5694 52.3121 57.3481 52.3668 57.0895 52.3668C56.5779 52.3668 56.2213 52.1615 55.9994 51.7395C55.7555 51.2759 55.6318 50.5453 55.6318 49.5673C55.6318 49.1082 55.6625 48.6956 55.7235 48.3419C55.782 48.003 55.8741 47.7172 55.9976 47.4919C56.1151 47.2765 56.2586 47.1189 56.4361 47.01C56.6112 46.9024 56.8309 46.8479 57.0895 46.8479C57.6051 46.8479 57.9627 47.0528 58.1824 47.4741C58.4245 47.938 58.5472 48.6692 58.5472 49.6472C58.5472 50.1076 58.5165 50.5199 58.4558 50.8728Z" fill="#00979C"/>
<path d="M57.7264 18.2325H58.0896V19.2618H58.3472V18.2325H58.7134V17.9769H57.7264V18.2325Z" fill="#00979C"/>
<path d="M59.6096 17.9769L59.3612 18.8527L59.1042 17.9769H58.7681V19.2618H59.0104V18.441L59.2506 19.2618H59.4718L59.6997 18.4623V19.2618H59.9407V17.9769H59.6096Z" fill="#00979C"/>
<path d="M47.7575 42.8407C44.5127 42.8407 41.7383 41.6612 39.2967 39.2489C37.7884 37.7592 36.5449 35.934 35.4008 34.0362C34.2569 35.934 33.0132 37.7592 31.5051 39.2489C28.8816 41.8408 25.8738 43.0095 22.3113 42.8211C15.5178 42.7893 10 37.0099 10 29.9106C10 22.7917 15.548 17 22.3675 17C26.0993 17 29.2411 18.3313 31.9718 21.0696C33.2835 22.3849 34.3908 23.9108 35.4008 25.5072C36.4108 23.9108 37.5183 22.3849 38.8297 21.0696C41.5604 18.3313 44.7023 17 48.4341 17C55.2537 17 60.8016 22.7917 60.8016 29.9106C60.8016 37.0099 55.284 42.7893 48.4903 42.8211C48.2462 42.8341 48.0019 42.8406 47.7575 42.8407ZM37.8853 29.7383C39.2387 32.1056 40.5524 34.3089 42.1525 35.8895C43.9586 37.6739 45.8624 38.4079 48.3233 38.2677L48.4341 38.2645C52.9227 38.2645 56.5746 34.517 56.5746 29.9106C56.5746 25.3043 52.9227 21.5566 48.4341 21.5566C45.7843 21.5566 43.6473 22.462 41.7089 24.4058C40.2611 25.8577 39.0658 27.7179 37.8853 29.7383ZM22.3675 21.5566C17.8789 21.5566 14.227 25.3043 14.227 29.9106C14.227 34.517 17.8789 38.2645 22.3675 38.2645L22.4785 38.2677C24.9396 38.4079 26.843 37.6739 28.6491 35.8895C30.2492 34.3089 31.563 32.1056 32.9163 29.7383C31.7358 27.7179 30.5405 25.8577 29.0929 24.4058C27.1543 22.462 25.0173 21.5566 22.3675 21.5566Z" fill="#00979C"/>
<path d="M48.9931 28.2545V25.7834H46.6073V28.2545H44.3152V30.814H46.6073V33.3032H48.9931V30.814H51.2853V28.2545H48.9931Z" fill="#00979C"/>
<path d="M18.9354 28.2235H26.4692V30.8633H18.9354V28.2235Z" fill="#00979C"/>
</svg>
