<svg width="40" height="29" viewBox="0 0 40 29" fill="none" xmlns="http://www.w3.org/2000/svg">
<path d="M36.6643 0H3.23573C2.49691 0 1.78835 0.305535 1.26593 0.84939C0.743506 1.39325 0.450012 2.13087 0.450012 2.9V26.1C0.450012 26.8691 0.743506 27.6068 1.26593 28.1506C1.78835 28.6945 2.49691 29 3.23573 29H36.6643C37.4031 29 38.1117 28.6945 38.6341 28.1506C39.1565 27.6068 39.45 26.8691 39.45 26.1V2.9C39.45 2.13087 39.1565 1.39325 38.6341 0.84939C38.1117 0.305535 37.4031 0 36.6643 0V0ZM33.6 2.9L19.95 12.731L6.30001 2.9H33.6ZM3.23573 26.1V4.2195L19.1561 15.689C19.3892 15.8574 19.6662 15.9476 19.95 15.9476C20.2338 15.9476 20.5108 15.8574 20.7439 15.689L36.6643 4.2195V26.1H3.23573Z" fill="black"/>
</svg>
