<svg width="72" height="72" viewBox="0 0 72 72" fill="none" xmlns="http://www.w3.org/2000/svg">
<path d="M36.399 67.896L18.8997 62.7639L15 16.557H57.8505L53.9467 62.7568L36.399 67.896Z" fill="#264DE4"/>
<path d="M50.6047 59.815L53.9405 20.3351H36.4253V63.9678L50.6047 59.815Z" fill="#2965F1"/>
<path d="M23.94 37.4727L24.4207 43.1398H36.4253V37.4727H23.94Z" fill="#EBEBEB"/>
<path d="M22.9738 26.0023L23.4614 31.6694H36.4253V26.0023H22.9738Z" fill="#EBEBEB"/>
<path d="M36.4253 52.1907L36.4017 52.1973L30.4274 50.4931L30.0455 45.9734H24.6604L25.4119 54.8716L36.4006 58.094L36.4253 58.0869V52.1907Z" fill="#EBEBEB"/>
<path d="M25.0847 4H31.5817V6.87038H27.8018V9.74076H31.5821V12.611H25.0847V4Z" fill="black"/>
<path d="M32.8813 4H39.3785V6.49599H35.5984V6.99515H39.3785V12.736H32.8815V10.1149H36.6616V9.61571H32.8811V4H32.8813Z" fill="black"/>
<path d="M40.6781 4H47.1753V6.49599H43.3951V6.99515H47.1753V12.736H40.6781V10.1149H44.4582V9.61571H40.6782V4H40.6781Z" fill="black"/>
<path d="M48.8763 37.4726L49.8446 26.0023H36.4068V31.6694H43.9657L43.4776 37.4726H36.4068V43.1397H43.0125L42.3897 50.4895L36.4066 52.1955V58.0913L47.404 54.8715L47.4846 53.914L48.7454 38.9944L48.8763 37.4726Z" fill="white"/>
</svg>
