<svg width="72" height="72" viewBox="0 0 72 72" fill="none" xmlns="http://www.w3.org/2000/svg">
<path d="M29 66C33.416 66 37 62.3413 37 57.8333V49.6666H29C24.584 49.6666 21 53.3253 21 57.8333C21 62.3413 24.584 66 29 66Z" fill="#0ACF83"/>
<path d="M21 41.5C21 36.992 24.584 33.3333 29 33.3333H37V49.6667H29C24.584 49.6667 21 46.008 21 41.5Z" fill="#A259FF"/>
<path d="M21 25.1667C21 20.6587 24.584 17 29 17H37V33.3333H29C24.584 33.3333 21 29.6747 21 25.1667Z" fill="#F24E1E"/>
<path d="M37 17H45C49.416 17 53 20.6587 53 25.1667C53 29.6747 49.416 33.3333 45 33.3333H37V17Z" fill="#FF7262"/>
<path d="M53 41.5C53 46.008 49.416 49.6667 45 49.6667C40.584 49.6667 37 46.008 37 41.5C37 36.992 40.584 33.3333 45 33.3333C49.416 33.3333 53 36.992 53 41.5Z" fill="#1ABCFE"/>
</svg>
