<svg width="247" height="45" viewBox="0 0 247 45" fill="none" xmlns="http://www.w3.org/2000/svg">
<path d="M0.911438 13.5573C0.911438 9.27863 4.94613 5.81006 9.92318 5.81006C10.4209 5.81006 10.8244 6.15692 10.8244 6.58479V32.8982C10.8244 37.1769 6.78966 40.6455 1.81261 40.6455C1.31491 40.6455 0.911438 40.2986 0.911438 39.8708V13.5573Z" fill="#C4C4C4"/>
<path d="M17.9837 5.02659C17.9837 2.0642 22.8788 0.871792 25.0378 3.30829L48.6524 29.9587C51.1286 32.7531 46.723 36.1168 43.1979 34.1232L40.2986 32.4836C38.5719 31.5071 36.1586 31.8044 34.9013 33.1486L24.9804 43.7545C22.7722 46.1153 17.9837 44.8962 17.9837 41.9733V5.02659Z" fill="#C4C4C4"/>
<path d="M64.1634 33V8.23242H69.3489V33H64.1634ZM80.2713 40.6289C77.9509 40.6289 76.0818 40.1836 74.6638 39.293C73.2576 38.4141 72.3904 37.1543 72.0623 35.5137L77.0017 34.9336C77.1775 35.6953 77.5525 36.293 78.1267 36.7266C78.7127 37.1602 79.4744 37.377 80.4119 37.377C81.783 37.377 82.7849 36.9551 83.4177 36.1113C84.0505 35.2676 84.367 34.0137 84.367 32.3496V31.3477L84.4021 29.4668H84.367C83.2771 31.7988 81.238 32.9648 78.2498 32.9648C76.0349 32.9648 74.3181 32.1328 73.0994 30.4688C71.8806 28.8047 71.2713 26.4258 71.2713 23.332C71.2713 20.2266 71.8982 17.8301 73.1521 16.1426C74.406 14.4551 76.2283 13.6113 78.6189 13.6113C81.3845 13.6113 83.3005 14.7539 84.367 17.0391H84.4548C84.4548 16.6289 84.4783 16.0723 84.5252 15.3691C84.5838 14.666 84.6423 14.2031 84.7009 13.9805H89.3767C89.3064 15.2461 89.2713 16.7109 89.2713 18.375V32.4199C89.2713 35.127 88.5037 37.1719 86.9685 38.5547C85.4334 39.9375 83.2009 40.6289 80.2713 40.6289ZM84.4021 23.2266C84.4021 21.2695 84.0505 19.7461 83.3474 18.6562C82.656 17.5547 81.6658 17.0039 80.3767 17.0039C77.74 17.0039 76.4216 19.1133 76.4216 23.332C76.4216 27.4688 77.7283 29.5371 80.3416 29.5371C81.6541 29.5371 82.656 28.9922 83.3474 27.9023C84.0505 26.8008 84.4021 25.2422 84.4021 23.2266ZM110.406 23.4727C110.406 26.5547 109.551 28.9746 107.84 30.7324C106.129 32.4785 103.762 33.3516 100.739 33.3516C97.7737 33.3516 95.4475 32.4727 93.76 30.7148C92.0725 28.957 91.2288 26.543 91.2288 23.4727C91.2288 20.4141 92.0725 18.0117 93.76 16.2656C95.4475 14.5078 97.8088 13.6289 100.844 13.6289C103.949 13.6289 106.317 14.4785 107.946 16.1777C109.586 17.8652 110.406 20.2969 110.406 23.4727ZM105.239 23.4727C105.239 21.2109 104.869 19.5703 104.131 18.5508C103.393 17.5312 102.321 17.0215 100.914 17.0215C97.9143 17.0215 96.4143 19.1719 96.4143 23.4727C96.4143 25.5938 96.7776 27.2109 97.5041 28.3242C98.2424 29.4258 99.303 29.9766 100.686 29.9766C103.721 29.9766 105.239 27.8086 105.239 23.4727ZM112.364 33V18.4453C112.364 17.4023 112.346 16.5352 112.311 15.8438C112.288 15.1406 112.259 14.5195 112.223 13.9805H116.934C116.969 14.1914 117.016 14.8359 117.075 15.9141C117.134 16.9805 117.163 17.6895 117.163 18.041H117.233C117.714 16.7051 118.141 15.7676 118.516 15.2285C118.891 14.6777 119.337 14.2734 119.852 14.0156C120.368 13.7461 121.012 13.6113 121.786 13.6113C122.419 13.6113 122.928 13.6992 123.315 13.875V18.0059C122.518 17.8301 121.815 17.7422 121.206 17.7422C119.975 17.7422 119.014 18.2402 118.323 19.2363C117.643 20.2324 117.303 21.709 117.303 23.666V33H112.364ZM149.853 33L147.656 26.6719H138.216L136.019 33H130.834L139.869 8.23242H145.986L154.986 33H149.853ZM142.927 12.0469L142.822 12.4336C142.705 12.8555 142.564 13.3359 142.4 13.875C142.236 14.4141 141.228 17.3789 139.377 22.7695H146.496L144.052 15.6504L143.297 13.2598L142.927 12.0469ZM154.686 33V6.91406H159.626V33H154.686ZM173.062 33H167.156L160.353 13.9805H165.574L168.896 24.6152C169.072 25.2012 169.488 26.666 170.144 29.0098C170.261 28.5293 170.501 27.6855 170.865 26.4785C171.228 25.2715 172.576 21.1055 174.908 13.9805H180.076L173.062 33ZM185.18 33.3516C183.34 33.3516 181.904 32.8535 180.873 31.8574C179.842 30.8496 179.326 29.4375 179.326 27.6211C179.326 25.6523 179.965 24.1523 181.242 23.1211C182.531 22.0898 184.394 21.5625 186.832 21.5391L190.928 21.4688V20.502C190.928 19.2598 190.711 18.3398 190.277 17.7422C189.844 17.1328 189.135 16.8281 188.15 16.8281C187.236 16.8281 186.562 17.0391 186.129 17.4609C185.707 17.8711 185.443 18.5566 185.338 19.5176L180.187 19.2715C180.504 17.4199 181.348 16.0195 182.719 15.0703C184.101 14.1094 185.982 13.6289 188.361 13.6289C190.764 13.6289 192.615 14.2207 193.916 15.4043C195.217 16.5879 195.867 18.2695 195.867 20.4492V27.375C195.867 28.4414 195.984 29.1797 196.219 29.5898C196.465 29.9883 196.869 30.1875 197.432 30.1875C197.807 30.1875 198.17 30.1523 198.521 30.082V32.7539C198.228 32.8242 197.965 32.8887 197.73 32.9473C197.496 33.0059 197.262 33.0527 197.027 33.0879C196.793 33.123 196.541 33.1523 196.271 33.1758C196.014 33.1992 195.709 33.2109 195.357 33.2109C194.115 33.2109 193.195 32.9062 192.598 32.2969C192.012 31.6875 191.66 30.791 191.543 29.6074H191.437C190.055 32.1035 187.969 33.3516 185.18 33.3516ZM190.928 24.1934L188.396 24.2285C187.248 24.2754 186.434 24.4043 185.953 24.6152C185.473 24.8145 185.103 25.125 184.846 25.5469C184.6 25.9688 184.476 26.5312 184.476 27.2344C184.476 28.1367 184.682 28.8105 185.092 29.2559C185.514 29.6895 186.07 29.9062 186.762 29.9062C187.535 29.9062 188.238 29.6953 188.871 29.2734C189.516 28.8516 190.019 28.2715 190.383 27.5332C190.746 26.7832 190.928 25.9922 190.928 25.1602V24.1934ZM199.024 33V18.4453C199.024 17.4023 199.007 16.5352 198.971 15.8438C198.948 15.1406 198.919 14.5195 198.884 13.9805H203.594C203.63 14.1914 203.676 14.8359 203.735 15.9141C203.794 16.9805 203.823 17.6895 203.823 18.041H203.893C204.374 16.7051 204.801 15.7676 205.176 15.2285C205.551 14.6777 205.997 14.2734 206.512 14.0156C207.028 13.7461 207.673 13.6113 208.446 13.6113C209.079 13.6113 209.589 13.6992 209.975 13.875V18.0059C209.178 17.8301 208.475 17.7422 207.866 17.7422C206.635 17.7422 205.675 18.2402 204.983 19.2363C204.303 20.2324 203.964 21.709 203.964 23.666V33H199.024ZM218.859 33.3516C215.999 33.3516 213.802 32.5078 212.267 30.8203C210.732 29.1211 209.964 26.6484 209.964 23.4023C209.964 20.2617 210.743 17.8477 212.302 16.1602C213.861 14.4727 216.07 13.6289 218.929 13.6289C221.659 13.6289 223.745 14.5371 225.187 16.3535C226.628 18.1582 227.349 20.8066 227.349 24.2988V24.4395H215.15C215.15 26.291 215.489 27.6914 216.169 28.6406C216.861 29.5781 217.839 30.0469 219.105 30.0469C220.851 30.0469 221.952 29.291 222.409 27.7793L227.068 28.1836C225.72 31.6289 222.984 33.3516 218.859 33.3516ZM218.859 16.7402C217.698 16.7402 216.802 17.1445 216.169 17.9531C215.548 18.7617 215.22 19.8926 215.185 21.3457H222.568C222.474 19.8105 222.105 18.6621 221.46 17.9004C220.816 17.127 219.948 16.7402 218.859 16.7402ZM228.058 33V29.502L237.006 17.5488H228.779V13.9805H242.455V17.5137L233.56 29.3965H243.316V33H228.058Z" fill="#C4C4C4"/>
</svg>
