<svg width="72" height="72" viewBox="0 0 72 72" fill="none" xmlns="http://www.w3.org/2000/svg">
<path d="M57.8505 16.5571L53.9467 62.7569L36.3991 67.8961L18.8997 62.764L15 16.5571H57.8505Z" fill="#E44D26"/>
<path d="M36.4253 63.9678L50.6047 59.815L53.9405 20.3351H36.4253V63.9678Z" fill="#F16529"/>
<path d="M28.8365 31.6694H36.4253V26.0023H22.9738L23.1022 27.5227L24.4207 43.1398H36.4253V37.4727H29.3268L28.8365 31.6694Z" fill="#EBEBEB"/>
<path d="M30.0454 45.9734H24.6604L25.4119 54.8716L36.4005 58.094L36.4252 58.0869V52.1907L36.4017 52.1973L30.4274 50.4931L30.0454 45.9734Z" fill="#EBEBEB"/>
<path d="M18.9868 4H21.7129V6.84536H24.2067V4H26.933V12.6165H24.2069V9.73117H21.7131V12.6165H18.9869V4H18.9868Z" fill="black"/>
<path d="M30.5178 6.85742H28.1182V4H35.6456V6.85742H33.2444V12.6165H30.5183V6.85742H30.5181H30.5178Z" fill="black"/>
<path d="M36.8401 4H39.6827L41.4312 7.0276L43.1781 4H46.0218V12.6165H43.3068V8.34567L41.4312 11.4093H41.3842L39.5075 8.34567V12.6165H36.8401V4Z" fill="black"/>
<path d="M47.3785 4H50.1055V9.76844H53.9392V12.6165H47.3783V4H47.3785Z" fill="black"/>
<path d="M36.4068 43.1397H43.0125L42.3897 50.4895L36.4066 52.1955V58.0913L47.404 54.8716L47.4847 53.9141L48.7454 38.9944L48.8763 37.4727H36.4068V43.1397Z" fill="white"/>
<path d="M36.4068 31.6556V31.6694H49.3644L49.4719 30.3957L49.7164 27.5227L49.8446 26.0023H36.4068V31.6558V31.6556Z" fill="white"/>
</svg>
