<svg width="72" height="72" viewBox="0 0 72 72" fill="none" xmlns="http://www.w3.org/2000/svg">
<path d="M13 16.522H59.375V66.0336H13V16.522Z" fill="#F5DE19"/>
<path d="M44.1524 55.2029C44.5475 56.0598 45.1614 56.78 45.9233 57.2806C46.6852 57.7811 47.5641 58.0417 48.4587 58.0321C50.264 58.0321 51.4184 57.0684 51.4184 55.7333C51.4184 54.1419 50.2325 53.5725 48.245 52.6442L47.1552 52.1455C44.0083 50.715 41.9214 48.9238 41.9214 45.1361C41.9214 41.6474 44.4058 38.9897 48.303 38.9897C49.5645 38.8924 50.825 39.1938 51.9272 39.8564C53.0293 40.519 53.9244 41.5133 54.5007 42.7154L51.0937 45.0407C50.8718 44.4446 50.4855 43.9347 49.9859 43.5784C49.4863 43.2222 48.897 43.0366 48.2963 43.0461C48.0343 43.018 47.7696 43.0486 47.5192 43.1359C47.2688 43.2231 47.0381 43.3651 46.842 43.5527C46.6458 43.7403 46.4884 43.9696 46.3798 44.2258C46.2712 44.4819 46.2137 44.7595 46.2111 45.0407C46.2111 46.4358 47.021 47.0017 48.8909 47.8699L49.9807 48.3685C53.6841 50.0643 55.7776 51.7919 55.7776 55.6768C55.7776 59.8658 52.6953 62.161 48.5564 62.161C46.9437 62.2707 45.3357 61.8798 43.9265 61.0354C42.5173 60.1911 41.3671 58.9294 40.6147 57.4026L44.1524 55.2029ZM28.7576 55.606C29.4416 56.9022 30.0643 57.9985 31.5616 57.9985C32.9926 57.9985 33.8969 57.4008 33.8969 55.0756V39.2549H38.2545V55.1374C38.2545 59.9542 35.6045 62.1468 31.7471 62.1468C30.3836 62.2264 29.0294 61.8636 27.8627 61.1062C26.6959 60.3487 25.7711 59.2321 25.2099 57.903L28.7576 55.606Z" fill="black"/>
</svg>
