<svg width="88" height="79" viewBox="0 0 88 79" fill="none" xmlns="http://www.w3.org/2000/svg">
<path d="M0 21.2334C0 13.3725 7.32625 7 16.3636 7C17.2674 7 18 7.63725 18 8.42334V56.7666C18 64.6275 10.6738 71 1.63636 71C0.732626 71 0 70.3628 0 69.5767V21.2334Z" fill="#C4C4C4"/>
<path d="M31 5.56048C31 0.117947 39.8887 -2.07275 43.8089 2.4036L86.6887 51.3659C91.1849 56.4999 83.1852 62.6797 76.7843 59.0171L71.5197 56.0047C68.3844 54.2107 64.0023 54.757 61.7193 57.2264L43.7048 76.7118C39.6951 81.049 31 78.8092 31 73.4393V5.56048Z" fill="#C4C4C4"/>
</svg>
