<svg width="72" height="72" viewBox="0 0 72 72" fill="none" xmlns="http://www.w3.org/2000/svg">
<path d="M35.2744 11C23.3716 11 24.1148 16.5325 24.1148 16.5325L24.128 22.2642H35.4866V23.9851H19.6166C19.6166 23.9851 12 23.0592 12 35.9315C12 48.8043 18.6479 48.3477 18.6479 48.3477H22.6154V42.3743C22.6154 42.3743 22.4015 35.2489 29.1572 35.2489H40.4229C40.4229 35.2489 46.7523 35.3585 46.7523 28.6924V17.6704C46.7523 17.6704 47.7136 11 35.2744 11ZM29.0112 14.8545C29.2797 14.8543 29.5455 14.9107 29.7935 15.0207C30.0415 15.1307 30.2669 15.292 30.4567 15.4954C30.6465 15.6988 30.797 15.9404 30.8996 16.2062C31.0022 16.4721 31.0549 16.757 31.0546 17.0447C31.0549 17.3324 31.0022 17.6173 30.8996 17.8831C30.797 18.1489 30.6465 18.3905 30.4567 18.5939C30.2669 18.7973 30.0415 18.9587 29.7935 19.0686C29.5455 19.1786 29.2797 19.2351 29.0112 19.2348C28.7428 19.2351 28.477 19.1786 28.229 19.0686C27.981 18.9587 27.7556 18.7973 27.5658 18.5939C27.376 18.3905 27.2255 18.1489 27.1229 17.8831C27.0203 17.6173 26.9676 17.3324 26.9678 17.0447C26.9676 16.757 27.0203 16.4721 27.1229 16.2062C27.2255 15.9404 27.376 15.6988 27.5658 15.4954C27.7556 15.292 27.981 15.1307 28.229 15.0207C28.477 14.9107 28.7428 14.8543 29.0112 14.8545Z" fill="url(#paint0_linear)"/>
<path d="M35.6124 60.9923C47.5151 60.9923 46.7719 55.4599 46.7719 55.4599L46.7587 49.7283H35.4V48.0074H51.27C51.27 48.0074 58.8866 48.9333 58.8866 36.0606C58.8866 23.1881 52.2386 23.6446 52.2386 23.6446H48.2712V29.6178C48.2712 29.6178 48.4851 36.7432 41.7294 36.7432H30.4637C30.4637 36.7432 24.1343 36.6336 24.1343 43.2999V54.3221C24.1343 54.3221 23.1732 60.9923 35.6122 60.9923H35.6124ZM41.8755 57.1382C41.6071 57.1384 41.3413 57.082 41.0932 56.972C40.8452 56.862 40.6199 56.7007 40.4301 56.4973C40.2403 56.2939 40.0898 56.0523 39.9872 55.7865C39.8846 55.5206 39.8319 55.2357 39.8321 54.948C39.8318 54.6603 39.8845 54.3754 39.9871 54.1095C40.0897 53.8437 40.2402 53.6021 40.43 53.3987C40.6198 53.1952 40.8452 53.0339 41.0932 52.9239C41.3412 52.8139 41.6071 52.7574 41.8755 52.7577C42.1439 52.7574 42.4097 52.8139 42.6578 52.9239C42.9058 53.0338 43.1311 53.1952 43.3209 53.3986C43.5107 53.602 43.6612 53.8436 43.7638 54.1094C43.8665 54.3752 43.9191 54.6602 43.9189 54.9478C43.9191 55.2355 43.8665 55.5204 43.7638 55.7863C43.6612 56.0521 43.5107 56.2937 43.3209 56.4971C43.1311 56.7005 42.9058 56.8618 42.6578 56.9718C42.4097 57.0818 42.1439 57.1383 41.8755 57.138V57.1382Z" fill="url(#paint1_linear)"/>
<defs>
<linearGradient id="paint0_linear" x1="16.5058" y1="15.4965" x2="41.3331" y2="38.4291" gradientUnits="userSpaceOnUse">
<stop stop-color="#387EB8"/>
<stop offset="1" stop-color="#366994"/>
</linearGradient>
<linearGradient id="paint1_linear" x1="30.7678" y1="31.3288" x2="57.3446" y2="54.7692" gradientUnits="userSpaceOnUse">
<stop stop-color="#FFE052"/>
<stop offset="1" stop-color="#FFC331"/>
</linearGradient>
</defs>
</svg>
