<svg width="72" height="72" viewBox="0 0 72 72" fill="none" xmlns="http://www.w3.org/2000/svg">
<path d="M28.9782 13.0006C28.7522 13.0078 28.5089 13.0936 28.2327 13.3172C27.5566 13.0495 26.9007 12.9564 26.3143 13.5016C25.4088 13.381 25.1146 13.6299 24.8916 13.9205C24.6928 13.9163 23.4042 13.7106 22.8132 14.6159C21.3281 14.4355 20.8588 15.5128 21.3906 16.5176C21.0872 16.9997 20.7729 17.4761 21.4822 18.3953C21.2313 18.9072 21.3869 19.4626 21.978 20.1347C21.8221 20.8544 22.1286 21.3621 22.6787 21.7579C22.5757 22.7427 23.5582 23.3154 23.8514 23.5194C23.9641 24.0931 24.1988 24.6348 25.3209 24.9341C25.506 25.7894 26.1803 25.9371 26.8334 26.1165C24.675 27.4049 22.8241 29.0998 22.8367 33.2589L22.5205 33.838C20.0456 35.3835 17.819 40.3508 21.3009 44.3882C21.5283 45.652 21.9097 46.5598 22.2494 47.5644C22.7573 51.6128 26.0723 53.5085 26.9467 53.7327C28.2279 54.7348 29.5925 55.6857 31.4393 56.3518C33.1799 58.1953 35.0658 58.898 36.9619 58.8969C36.9898 58.8969 40.8279 58.1954 42.5688 56.3518C44.4153 55.6857 45.7799 54.7348 47.0613 53.7327C47.9355 53.5085 51.2505 51.6128 51.7585 47.5644C52.0981 46.5598 52.4795 45.652 52.707 44.3882C56.1887 40.3504 53.9622 35.3829 51.4875 33.8375L51.1707 33.2583C51.1833 29.0997 49.3324 27.4046 47.174 26.1159C47.827 25.9365 48.5015 25.7888 48.6864 24.9335C49.8084 24.6341 50.0433 24.0926 50.1558 23.5188C50.4492 23.3148 51.4316 22.7422 51.3289 21.7573C51.8786 21.3615 52.1853 20.8537 52.0293 20.1341C52.6205 19.462 52.7759 18.9067 52.525 18.3946C53.2346 17.4759 52.9197 16.9996 52.6168 16.5175C53.1483 15.5127 52.6793 14.4352 51.1937 14.6157C50.603 13.7105 49.3146 13.916 49.1153 13.9202C48.8924 13.6297 48.5982 13.3808 47.6927 13.5014C47.1063 12.9563 46.4506 13.0492 45.7743 13.3171C44.9712 12.6664 44.4399 13.1879 43.8329 13.3852C42.8605 13.0589 42.6381 13.5058 42.1604 13.6879C41.1 13.4578 40.7778 13.9587 40.2696 14.4874L39.6781 14.4753C38.0788 15.4432 37.2842 17.414 37.0025 18.4272C36.7209 17.4139 35.9281 15.443 34.329 14.4753L33.7377 14.4874C33.2287 13.9587 32.9066 13.4578 31.8462 13.6879C31.3684 13.5058 31.1469 13.0589 30.1737 13.3852C29.7753 13.2557 29.4089 12.9867 28.9776 13.0005L18 32.7952" fill="black"/>
<path d="M25.7941 17.2587C30.0373 19.5051 32.5041 21.3223 33.8556 22.87C33.1635 25.7184 29.553 25.8484 28.2329 25.7685C28.5032 25.6394 28.7287 25.4845 28.8087 25.2468C28.4774 25.0051 27.3029 25.2213 26.4829 24.7483C26.7979 24.6812 26.9452 24.6159 27.0925 24.3772C26.3178 24.1235 25.4833 23.9048 24.9925 23.4845C25.2573 23.4878 25.5046 23.5454 25.8505 23.299C25.1567 22.915 24.4162 22.6107 23.8409 22.0237C24.1997 22.0147 24.5864 22.02 24.699 21.8846C24.0639 21.4805 23.528 21.0313 23.0844 20.5398C23.5865 20.6019 23.7985 20.5485 23.9199 20.4586C23.4398 19.9536 22.8322 19.5272 22.5425 18.905C22.9152 19.037 23.2563 19.0875 23.5021 18.8935C23.339 18.5156 22.6401 18.2926 22.2376 17.4094C22.6301 17.4486 23.0463 17.4973 23.1296 17.4094C22.9475 16.6474 22.6349 16.2189 22.3284 15.775C23.1683 15.7622 24.4408 15.7784 24.3833 15.7055L23.8639 15.1606C24.6843 14.9338 25.5238 15.197 26.1333 15.3924C26.4068 15.1707 26.1284 14.8904 25.7945 14.6041C26.4917 14.6997 27.1217 14.8643 27.6913 15.091C27.9955 14.809 27.4938 14.5268 27.2509 14.2447C28.3282 14.4545 28.7845 14.7494 29.238 15.0447C29.5671 14.7208 29.2569 14.4455 29.0349 14.1636C29.8471 14.4724 30.2655 14.8713 30.7058 15.2649C30.8551 15.058 31.0852 14.9062 30.8074 14.407C31.3841 14.7483 31.8184 15.1505 32.1397 15.6012C32.4966 15.3679 32.3523 15.0489 32.3542 14.7548C32.9536 15.2554 33.334 15.7882 33.7995 16.3083C33.8933 16.2381 33.9753 16.0005 34.0479 15.6244C35.4776 17.0486 37.4979 20.6363 34.5672 22.0588C32.073 19.9465 29.0942 18.411 25.7931 17.2592L25.7941 17.2587Z" fill="#75A928"/>
<path d="M48.3086 17.2587C44.066 19.5054 41.5991 21.322 40.2478 22.87C40.9399 25.7184 44.5502 25.8484 45.8704 25.7685C45.6001 25.6394 45.3745 25.4845 45.2947 25.2468C45.6259 25.0051 46.8005 25.2213 47.6204 24.7483C47.3054 24.6812 47.1581 24.6159 47.0107 24.3772C47.7855 24.1235 48.6201 23.9048 49.1107 23.4845C48.8459 23.4879 48.5986 23.5454 48.2527 23.299C48.9467 22.9151 49.6872 22.6107 50.2625 22.0237C49.9036 22.0147 49.5168 22.0201 49.4044 21.8846C50.0395 21.4805 50.5754 21.0313 51.0189 20.5398C50.5168 20.602 50.3048 20.5485 50.1834 20.4586C50.6635 19.9536 51.2712 19.5273 51.5609 18.9051C51.1881 19.037 50.8469 19.0876 50.6011 18.8935C50.7642 18.5156 51.4633 18.2927 51.8656 17.4095C51.4732 17.4486 51.0569 17.4973 50.9737 17.4095C51.1562 16.6471 51.4687 16.2187 51.7753 15.7747C50.9354 15.762 49.6628 15.7781 49.7204 15.7053L50.2398 15.1603C49.4193 14.9335 48.5799 15.1968 47.9704 15.3922C47.6968 15.1705 47.9752 14.8901 48.309 14.6039C47.6119 14.6993 46.9818 14.864 46.4123 15.0908C46.108 14.8087 46.6099 14.5265 46.8527 14.2445C45.7755 14.4542 45.3191 14.7492 44.8655 15.0444C44.5364 14.7205 44.8468 14.4452 45.0688 14.1633C44.2565 14.4722 43.8382 14.871 43.3978 15.2647C43.2484 15.0578 43.0184 14.906 43.2961 14.4068C42.7196 14.7481 42.2852 15.1503 41.9639 15.6009C41.6071 15.3676 41.7513 15.0485 41.7494 14.7545C41.15 15.2552 40.7697 15.7878 40.3041 16.3081C40.2104 16.2379 40.1283 16.0002 40.0557 15.624C38.6261 17.0484 36.6058 20.6361 39.5365 22.0585C42.0293 19.9456 45.008 18.4105 48.3092 17.2587H48.3086Z" fill="#75A928"/>
<path d="M42.1901 46.2635C42.2048 48.9216 39.9412 51.0877 37.1342 51.1016C34.3271 51.1157 32.0395 48.9723 32.0247 46.3142C32.0246 46.2973 32.0246 46.2804 32.0247 46.2635C32.01 43.6056 34.2735 41.4395 37.0806 41.4255C39.8877 41.4114 42.1751 43.5548 42.1901 46.2129V46.2635Z" fill="#BC1142"/>
<path d="M34.1665 32.5152C36.2725 33.9322 36.6521 37.1437 35.0144 39.6885C33.3766 42.2333 30.3418 43.1478 28.2357 41.731C26.1297 40.314 25.7502 37.1025 27.3878 34.5577C29.0256 32.0129 32.0604 31.0984 34.1665 32.5152Z" fill="#BC1142"/>
<path d="M39.8506 32.2585C37.7448 33.6754 37.3651 36.8871 39.0027 39.4319C40.6405 41.9768 43.6754 42.8913 45.7814 41.4743C47.8874 40.0575 48.267 36.8458 46.6293 34.3009C44.9917 31.7562 41.9568 30.8417 39.8506 32.2585Z" fill="#BC1142"/>
<path d="M23.6407 34.8317C25.9145 34.2058 24.4084 44.491 22.5583 43.6471C20.5233 41.9664 19.8679 37.0441 23.6407 34.8317Z" fill="#BC1142"/>
<path d="M49.9174 34.7032C47.6434 34.0775 49.1497 44.3632 50.9998 43.5193C53.0348 41.8384 53.6903 36.9155 49.9174 34.7032Z" fill="#BC1142"/>
<path d="M42.1918 27.0439C46.1158 26.3636 49.3809 28.7575 49.2491 33.1269C49.12 34.8021 40.7462 27.2934 42.1918 27.0439Z" fill="#BC1142"/>
<path d="M31.3501 26.9159C27.4258 26.2354 24.161 28.6299 24.2928 32.999C24.4218 34.674 32.7959 27.1653 31.3501 26.9159Z" fill="#BC1142"/>
<path d="M36.9867 25.8968C34.6447 25.8342 32.397 27.6816 32.3916 28.7532C32.3851 30.0552 34.2433 31.3884 37.0027 31.4222C39.8204 31.4428 41.6186 30.3551 41.6276 29.0114C41.638 27.489 39.0648 25.8732 36.9867 25.8967V25.8968Z" fill="#BC1142"/>
<path d="M37.1297 52.5966C39.1716 52.5051 41.9114 53.2719 41.9169 54.2893C41.9508 55.2771 39.432 57.509 36.9943 57.4659C34.4697 57.5778 31.9941 55.3424 32.0265 54.5676C31.9887 53.4315 35.1005 52.5446 37.1297 52.5966Z" fill="#BC1142"/>
<path d="M29.5877 46.5674C31.0415 48.3658 31.7043 51.5255 30.491 52.457C29.3433 53.1681 26.556 52.8752 24.5749 49.9527C23.2388 47.5003 23.4109 45.0048 24.3491 44.2717C25.7519 43.3942 27.9195 44.5796 29.5879 46.5674H29.5877Z" fill="#BC1142"/>
<path d="M44.3807 45.9973C42.8077 47.8891 41.9319 51.3396 43.0793 52.4509C44.1764 53.3143 47.1216 53.1936 49.2971 50.0939C50.8767 48.0121 50.3475 44.5353 49.4451 43.6121C48.1048 42.5475 46.1804 43.91 44.3807 45.9968V45.9973Z" fill="#BC1142"/>
</svg>
